{
  "title": "Tinashe -- Aquarius (2014.PBRnB)",
  "uid": 11160761,
  "size": 128196012,
  "categoryP": "audio",
  "categoryS": "other",
  "magnet": "?xt=urn:btih:cce0643cc00937ae5b868dc27fde47306157f232&amp;dn=Tinashe+--+Aquarius+%282014.PBRnB%29&amp;tr=udp%3A%2F%2Ftracker.openbittorrent.com%3A80&amp;tr=udp%3A%2F%2Fopen.demonii.com%3A1337&amp;tr=udp%3A%2F%2Ftracker.coppersurfer.tk%3A6969&amp;tr=udp%3A%2F%2Fexodus.desync.com%3A6969",
  "seeders": 43,
  "leechers": 14,
  "uploader": "MeRaDil",
  "files": -1,
  "time": 1412535515,
  "description": "TINASHE - AQUARIUS\n\n &lt;a href=&quot;\nhttp://ultraimg.com/images/Tinashe.png&quot; rel=&quot;nofollow&quot; target=&quot;_NEW&quot;&gt;\nhttp://ultraimg.com/images/Tinashe.png&lt;/a&gt;\n\n\niTunes Audio * Variable bitrate mode\n\n\nTINASHE - AQUARIUS\nGeneral\nComplete name                            : 01 Aquarius.m4a\nFormat                                   : MPEG-4\nFormat profile                           : Apple audio with iTunes info\nCodec ID                                 : M4A \nFile size                                : 7.94 MiB\nDuration                                 : 3mn 55s\nOverall bit rate mode                    : Variable\nOverall bit rate                         : 283 Kbps\nAlbum                                    : Aquarius\nAlbum/Performer                          : Tinashe\nTrack name                               : Aquarius\nTrack name/More                          : Tinashe\nTrack name/Position                      : 1\nPerformer                                : Tinashe\nGenre                                    : PBR&amp;B\nContentType                              : Music\nRecorded date                            : 2014\nEncoded date                             : UTC 2007-08-01 13:53:20\nTagged date                              : UTC 2014-10-03 10:12:12\nCopyright                                : Tinashe\nCover                                    : Yes\nRating                                   : Explicit\nMake                                     : RCA\noday                                     : 07-10-2014 USA\nartist url                               : http://www.tinashenow.com\nlabel                                    : RCA\nrelease                                  : USA . october 7 . 2014\n\nAudio\nID                                       : 1\nFormat                                   : AAC\nFormat/Info                              : Advanced Audio Codec\nFormat profile                           : LC\nCodec ID                                 : 40\nDuration                                 : 3mn 55s\nBit rate mode                            : Variable\nBit rate                                 : 256 Kbps\nMaximum bit rate                         : 313 Kbps\nChannel(s)                               : 2 channels\nChannel positions                        : Front: L R\nSampling rate                            : 44.1 KHz\nCompression mode                         : Lossy\nStream size                              : 7.37 MiB (93%)\nLanguage                                 : English\nEncoded date                             : UTC 2007-08-01 13:53:20\nTagged date                              : UTC 2014-10-03 10:12:12\n\nGeneral\nComplete name                            : 02 Bet  ft. Devonte' Hynes.m4a\nFormat                                   : MPEG-4\nFormat profile                           : Apple audio with iTunes info\nCodec ID                                 : M4A \nFile size                                : 11.3 MiB\nDuration                                 : 5mn 40s\nOverall bit rate mode                    : Variable\nOverall bit rate                         : 278 Kbps\nAlbum                                    : Aquarius\nAlbum/Performer                          : Tinashe\nTrack name                               : Bet\nTrack name/More                          : Tinashe\nTrack name/Position                      : 2\nPerformer                                : Tinashe ft. Devonte' Hynes\nGenre                                    : PBR&amp;B\nContentType                              : Music\nRecorded date                            : 2014\nTagged date                              : UTC 2014-10-03 10:12:16\nCopyright                                : Tinashe\nCover                                    : Yes\nMake                                     : RCA\noday                                     : 07-10-2014 USA\naurl                                     : http://www.tinashenow.com\nlabl                                     : RCA\nrelt                                     : USA . october 7 . 2014\n\nAudio\nID                                       : 1\nFormat                                   : AAC\nFormat/Info                              : Advanced Audio Codec\nFormat profile                           : LC\nCodec ID                                 : 40\nDuration                                 : 5mn 40s\nBit rate mode                            : Variable\nBit rate                                 : 256 Kbps\nMaximum bit rate                         : 322 Kbps\nChannel(s)                               : 2 channels\nChannel positions                        : Front: L R\nSampling rate                            : 44.1 KHz\nCompression mode                         : Lossy\nStream size                              : 10.7 MiB (95%)\nLanguage                                 : English\nTagged date                              : UTC 2014-10-03 10:12:16\n\nGeneral\nComplete name                            : 03 Cold Sweat.m4a\nFormat                                   : MPEG-4\nFormat profile                           : Apple audio with iTunes info\nCodec ID                                 : M4A \nFile size                                : 10.7 MiB\nDuration                                 : 5mn 11s\nOverall bit rate mode                    : Variable\nOverall bit rate                         : 287 Kbps\nAlbum                                    : Aquarius\nAlbum/Performer                          : Tinashe\nTrack name                               : Cold Sweat\nTrack name/More                          : Tinashe\nTrack name/Position                      : 3\nPerformer                                : Tinashe\nGenre                                    : PBR&amp;B\nContentType                              : Music\nRecorded date                            : 2014\nTagged date                              : UTC 2014-10-03 10:12:19\nCopyright                                : Tinashe\nCover                                    : Yes\nRating                                   : Explicit\nMake                                     : RCA\noday                                     : 07-10-2014 USA\naurl                                     : http://www.tinashenow.com\nlabl                                     : RCA\nrelt                                     : USA . october 7 . 2014\n\nAudio\nID                                       : 1\nFormat                                   : AAC\nFormat/Info                              : Advanced Audio Codec\nFormat profile                           : LC\nCodec ID                                 : 40\nDuration                                 : 5mn 11s\nBit rate mode                            : Variable\nBit rate                                 : 271 Kbps\nNominal bit rate                         : 256 Kbps\nMaximum bit rate                         : 345 Kbps\nChannel(s)                               : 2 channels\nChannel positions                        : Front: L R\nSampling rate                            : 44.1 KHz\nCompression mode                         : Lossy\nStream size                              : 10.1 MiB (95%)\nLanguage                                 : English\nTagged date                              : UTC 2014-10-03 10:12:19\n\nEtc....\n &lt;a href=&quot;\nhttp://en.wikipedia.org/wiki/Aquarius_(Tinashe_album)&quot; rel=&quot;nofollow&quot; target=&quot;_NEW&quot;&gt;\nhttp://en.wikipedia.org/wiki/Aquarius_(Tinashe_album)&lt;/a&gt;\n",
  "parsed": {
    "xt": "urn:btih:cce0643cc00937ae5b868dc27fde47306157f232",
    "dn": "Tinashe -- Aquarius (2014.PBRnB)",
    "tr": [
      "udp://exodus.desync.com:6969",
      "udp://open.demonii.com:1337",
      "udp://tracker.coppersurfer.tk:6969",
      "udp://tracker.openbittorrent.com:80"
    ],
    "infoHash": "cce0643cc00937ae5b868dc27fde47306157f232",
    "infoHashBuffer": {
      "type": "Buffer",
      "data": [
        204,
        224,
        100,
        60,
        192,
        9,
        55,
        174,
        91,
        134,
        141,
        194,
        127,
        222,
        71,
        48,
        97,
        87,
        242,
        50
      ]
    },
    "name": "Tinashe -- Aquarius (2014.PBRnB)",
    "announce": [
      "udp://exodus.desync.com:6969",
      "udp://open.demonii.com:1337",
      "udp://tracker.coppersurfer.tk:6969",
      "udp://tracker.openbittorrent.com:80"
    ],
    "urlList": []
  },
  "previous": 57,
  "peers": 1,
  "last_updated": "2016-12-25T14:11:38.758Z"
}